<svg width="121" height="31" viewBox="0 0 121 31" fill="none" xmlns="http://www.w3.org/2000/svg">
<path d="M15.9375 1.5625V30H9.08203V1.5625H15.9375ZM24.4922 1.5625V6.85547H0.722656V1.5625H24.4922ZM50.918 15.2148V16.3672C50.918 18.5417 50.612 20.4948 50 22.2266C49.401 23.9453 48.5482 25.4167 47.4414 26.6406C46.3346 27.8516 45.026 28.7826 43.5156 29.4336C42.0052 30.0716 40.3385 30.3906 38.5156 30.3906C36.6797 30.3906 35 30.0716 33.4766 29.4336C31.9661 28.7826 30.651 27.8516 29.5312 26.6406C28.4245 25.4167 27.5651 23.9453 26.9531 22.2266C26.3542 20.4948 26.0547 18.5417 26.0547 16.3672V15.2148C26.0547 13.0404 26.3542 11.0872 26.9531 9.35547C27.5651 7.6237 28.418 6.15234 29.5117 4.94141C30.6185 3.71745 31.9271 2.78646 33.4375 2.14844C34.9609 1.4974 36.6406 1.17188 38.4766 1.17188C40.2995 1.17188 41.9661 1.4974 43.4766 2.14844C45 2.78646 46.3151 3.71745 47.4219 4.94141C48.5286 6.15234 49.388 7.6237 50 9.35547C50.612 11.0872 50.918 13.0404 50.918 15.2148ZM43.9648 16.3672V15.1758C43.9648 13.7695 43.8411 12.5326 43.5938 11.4648C43.3594 10.3841 43.0078 9.47917 42.5391 8.75C42.0703 8.02083 41.4909 7.47396 40.8008 7.10938C40.1237 6.73177 39.349 6.54297 38.4766 6.54297C37.5651 6.54297 36.7708 6.73177 36.0938 7.10938C35.4167 7.47396 34.8503 8.02083 34.3945 8.75C33.9388 9.47917 33.5938 10.3841 33.3594 11.4648C33.138 12.5326 33.0273 13.7695 33.0273 15.1758V16.3672C33.0273 17.7604 33.138 18.9974 33.3594 20.0781C33.5938 21.1458 33.9388 22.0508 34.3945 22.793C34.8633 23.5352 35.4362 24.0951 36.1133 24.4727C36.8034 24.8503 37.6042 25.0391 38.5156 25.0391C39.388 25.0391 40.1628 24.8503 40.8398 24.4727C41.5169 24.0951 42.0833 23.5352 42.5391 22.793C43.0078 22.0508 43.3594 21.1458 43.5938 20.0781C43.8411 18.9974 43.9648 17.7604 43.9648 16.3672ZM57.8711 1.5625H63.457L69.8047 21.3477L76.1523 1.5625H81.7383L72.0703 30H67.5391L57.8711 1.5625ZM54.4727 1.5625H60.2539L61.3281 23.3594V30H54.4727V1.5625ZM79.3555 1.5625H85.1562V30H78.2812V23.3594L79.3555 1.5625ZM95.1367 0V3.20312C95.1367 4.07552 94.9609 4.96745 94.6094 5.87891C94.2708 6.79036 93.8281 7.64974 93.2812 8.45703C92.7474 9.2513 92.1745 9.92188 91.5625 10.4688L88.6719 8.90625C89.0885 8.16406 89.4661 7.34375 89.8047 6.44531C90.1562 5.53385 90.332 4.44661 90.332 3.18359V0H95.1367ZM113.926 22.4414C113.926 21.9987 113.861 21.6016 113.73 21.25C113.6 20.8854 113.359 20.5469 113.008 20.2344C112.656 19.9219 112.148 19.6094 111.484 19.2969C110.833 18.9714 109.974 18.6328 108.906 18.2812C107.656 17.8646 106.452 17.3958 105.293 16.875C104.134 16.3411 103.099 15.7227 102.188 15.0195C101.276 14.3034 100.553 13.4701 100.02 12.5195C99.4857 11.556 99.2188 10.4362 99.2188 9.16016C99.2188 7.9362 99.4922 6.83594 100.039 5.85938C100.586 4.86979 101.348 4.02995 102.324 3.33984C103.314 2.63672 104.473 2.10286 105.801 1.73828C107.129 1.36068 108.581 1.17188 110.156 1.17188C112.24 1.17188 114.076 1.53646 115.664 2.26562C117.266 2.98177 118.516 4.00391 119.414 5.33203C120.326 6.64714 120.781 8.20312 120.781 10H113.965C113.965 9.28385 113.815 8.65234 113.516 8.10547C113.229 7.55859 112.793 7.12891 112.207 6.81641C111.621 6.50391 110.885 6.34766 110 6.34766C109.141 6.34766 108.418 6.47786 107.832 6.73828C107.246 6.9987 106.803 7.35026 106.504 7.79297C106.204 8.22266 106.055 8.69792 106.055 9.21875C106.055 9.64844 106.172 10.0391 106.406 10.3906C106.654 10.7292 106.999 11.0482 107.441 11.3477C107.897 11.6471 108.444 11.9336 109.082 12.207C109.733 12.4805 110.462 12.7474 111.27 13.0078C112.78 13.4896 114.121 14.0299 115.293 14.6289C116.478 15.2148 117.474 15.8854 118.281 16.6406C119.102 17.3828 119.72 18.2292 120.137 19.1797C120.566 20.1302 120.781 21.2044 120.781 22.4023C120.781 23.6784 120.534 24.8112 120.039 25.8008C119.544 26.7904 118.835 27.6302 117.91 28.3203C116.986 28.9974 115.879 29.5117 114.59 29.8633C113.301 30.2148 111.862 30.3906 110.273 30.3906C108.815 30.3906 107.376 30.2083 105.957 29.8438C104.551 29.4661 103.275 28.8932 102.129 28.125C100.983 27.3438 100.065 26.3477 99.375 25.1367C98.6979 23.9128 98.3594 22.4609 98.3594 20.7812H105.234C105.234 21.6146 105.345 22.3177 105.566 22.8906C105.788 23.4635 106.113 23.9258 106.543 24.2773C106.973 24.6159 107.5 24.8633 108.125 25.0195C108.75 25.1628 109.466 25.2344 110.273 25.2344C111.146 25.2344 111.849 25.1107 112.383 24.8633C112.917 24.6029 113.307 24.2643 113.555 23.8477C113.802 23.418 113.926 22.9492 113.926 22.4414Z" fill="black"/>
</svg>
